<?xml version="1.0" encoding="utf-8"?>
<!-- Generator: Adobe Illustrator 25.0.1, SVG Export Plug-In . SVG Version: 6.00 Build 0)  -->
<svg version="1.1" id="Layer_1" xmlns="http://www.w3.org/2000/svg" xmlns:xlink="http://www.w3.org/1999/xlink" x="0px" y="0px"
	 width="199px" height="200px" viewBox="0 0 199 200" style="enable-background:new 0 0 199 200;" xml:space="preserve">
<style type="text/css">
	.st0{fill:#489E36;}
</style>
<g>
	<g>
		<path d="M178.9,147.1c0-13.1-9.6-23.9-22.2-25.7V17.8c0-4.7-3.8-8.8-8.8-8.8H68.8l0,0l0,0c-0.6,0-1.5,0.3-2,0.9l-42.3,42
			c-0.6,0.6-0.9,1.2-0.9,2v101.9c0,5.5,4.4,9.9,9.9,9.9h100.7c1.5,1.5,3.2,2.6,5,3.8v23.4c0,1.2,0.6,2,1.5,2.6
			c0.6,0.3,0.9,0.3,1.5,0.3c0.6,0,1.2,0,1.5-0.3l9-5.5l8.8,5.5c0.9,0.6,2,0.6,2.9,0c0.9-0.6,1.5-1.5,1.5-2.6v-23.4
			C173.6,164.9,178.9,156.7,178.9,147.1z M65.9,19v28c0,2.3-1.8,4.1-4.1,4.1h-28L65.9,19z M29.4,155.9v-99h32.1
			c5.5,0,9.9-4.4,9.9-9.9V14.9h76.5c1.5,0,2.9,1.2,2.9,2.9v103.6c-13.4,0.9-24.2,12.3-24.2,26c0,4.7,1.2,9,3.5,12.8H33.8
			C31.4,159.9,29.4,158.2,29.4,155.9z M160.2,187.7l-5.8-3.8c-0.9-0.6-2-0.6-3.2,0l-6.1,3.8v-15.5c2.3,0.9,5,1.2,7.6,1.2
			s5.3-0.3,7.6-1.2C160.2,172.2,160.2,187.7,160.2,187.7z M152.6,167.5c-11.1,0-20.1-9-20.1-20.1s9-20.1,20.1-20.1
			c11.1,0,20.1,9,20.1,20.1C173,158.5,163.7,167.5,152.6,167.5z"/>
	</g>
	<g>
		<path d="M99.2,99.8c1.8,0,2.9-1.2,2.9-2.9V79.1c0-1.8-1.2-2.9-2.9-2.9H81.4c-1.8,0-2.9,1.2-2.9,2.9v17.8c0,1.8,1.2,2.9,2.9,2.9
			H99.2z M84,82h12v12H84V82z"/>
	</g>
	<g>
		<path d="M138.9,96.9V79.1c0-1.8-1.2-2.9-2.9-2.9h-6.1V66c0-1.8-1.2-2.9-2.9-2.9H93V50.5h6.4c1.8,0,2.9-1.2,2.9-2.9V28.3
			c0-1.8-1.2-2.9-2.9-2.9H80.8c-1.8,0-2.9,1.2-2.9,2.9v19c0,1.8,1.2,2.9,2.9,2.9h6.4v12.6H53c-1.8,0-2.9,1.2-2.9,2.9v10.5H44
			c-1.8,0-2.9,1.2-2.9,2.9v17.8c0,1.8,1.2,2.9,2.9,2.9h17.8c1.8,0,2.9-1.2,2.9-2.9V79.1c0-1.8-1.2-2.9-2.9-2.9h-6.1v-7.3h68v7.3
			h-6.1c-1.8,0-2.9,1.2-2.9,2.9v17.8c0,1.8,1.2,2.9,2.9,2.9h17.8C137.7,99.8,138.9,98.4,138.9,96.9z M83.7,31.2h13.1v13.1H83.7V31.2
			z M59.2,94h-12V82h12V94z M133,94h-12V82h12V94z"/>
	</g>
	<g>
		<path d="M113.8,143.6H44.3c-1.8,0-2.9,1.2-2.9,2.9c0,1.8,1.2,2.9,2.9,2.9h69.5c1.8,0,2.9-1.2,2.9-2.9
			C116.7,144.8,115.2,143.6,113.8,143.6z"/>
	</g>
	<g>
		<path d="M113.8,128.7H44.3c-1.8,0-2.9,1.2-2.9,2.9c0,1.8,1.2,2.9,2.9,2.9h69.5c1.8,0,2.9-1.2,2.9-2.9
			C116.7,130.2,115.2,128.7,113.8,128.7z"/>
	</g>
	<g>
		<path d="M113.8,114.1H44.3c-1.8,0-2.9,1.2-2.9,2.9c0,1.8,1.2,2.9,2.9,2.9h69.5c1.8,0,2.9-1.2,2.9-2.9
			C116.7,115.3,115.2,114.1,113.8,114.1z"/>
	</g>
</g>
<circle class="st0" cx="152.5" cy="147.5" r="21.5"/>
</svg>
