<?xml version="1.0" encoding="utf-8"?>
<!-- Generator: Adobe Illustrator 25.0.1, SVG Export Plug-In . SVG Version: 6.00 Build 0)  -->
<svg version="1.1" id="Layer_1" xmlns="http://www.w3.org/2000/svg" xmlns:xlink="http://www.w3.org/1999/xlink" x="0px" y="0px"
	 width="200px" height="200px" viewBox="0 0 200 200" style="enable-background:new 0 0 200 200;" xml:space="preserve">
<style type="text/css">
	.st0{fill:#424445;}
	.st1{fill:#535556;}
	.st2{fill:#705540;}
	.st3{fill:#36A348;}
	.st4{fill:#F4F5F5;}
</style>
<g>
	<g>
		<path class="st0" d="M186.7,162.4V79.5L153,45.8L57.3,150.2L97.1,190h62C174.3,190,186.7,177.6,186.7,162.4z"/>
		<path class="st1" d="M153,45.8l33.7,33.7V45c0-15.3-12.4-27.6-27.6-27.6H41.6C26.4,17.3,14,29.7,14,45v117.4
			c0,15.3,12.4,27.6,27.6,27.6h55.4l-39.8-39.8L153,45.8z"/>
	</g>
	<g>
		<polygon class="st2" points="47.8,45.8 153,45.8 143.8,149.3 100.4,161.5 57.3,150.2 		"/>
		<polygon class="st3" points="98.9,53.9 141.8,53.9 134.3,140.9 98.9,150.7 		"/>
		<path class="st4" d="M98.9,64.7c0,0-44.3,40-1.8,65.4v0c0,0,0.9,8.9,0.8,10.3h2.5c0,0,0.4-10.4,1.1-10.8l0,0
			C142.6,104.2,98.9,64.7,98.9,64.7z"/>
	</g>
</g>
</svg>
