<?xml version="1.0" encoding="utf-8"?>
<!-- Generator: Adobe Illustrator 25.0.1, SVG Export Plug-In . SVG Version: 6.00 Build 0)  -->
<svg version="1.1" xmlns="http://www.w3.org/2000/svg" xmlns:xlink="http://www.w3.org/1999/xlink" x="0px" y="0px" width="200px"
	 height="200px" viewBox="0 0 200 200" style="enable-background:new 0 0 200 200;" xml:space="preserve">
<style type="text/css">
	.st0{fill:#679E63;}
	.st1{fill:url(#SVGID_1_);}
	.st2{fill:url(#SVGID_2_);}
	.st3{fill:url(#SVGID_3_);}
</style>
<g id="bg">
</g>
<g id="Layer_2">
	<g>
		<path class="st0" d="M100.7,158.1c-0.6,0-1.2-0.2-1.7-0.5l-5.4-3.2c-0.8-0.5-0.4-0.6-0.1-0.7c1.1-0.4,1.3-0.5,2.5-1.1
			c0.1-0.1,0.3,0,0.4,0l4.2,2.5c0.2,0.1,0.4,0.1,0.5,0l16.3-9.4c0.2-0.1,0.2-0.3,0.2-0.4v-18.8c0-0.2-0.1-0.4-0.3-0.4l-16.3-9.4
			c-0.2-0.1-0.4-0.1-0.5,0L84.1,126c-0.2,0.1-0.3,0.3-0.3,0.4v18.8c0,0.2,0.1,0.4,0.3,0.4l4.5,2.6c2.4,1.2,3.9-0.2,3.9-1.7V128
			c0-0.3,0.2-0.5,0.5-0.5h2.1c0.3,0,0.5,0.2,0.5,0.5v18.6c0,3.2-1.8,5.1-4.8,5.1c-0.9,0-1.7,0-3.8-1l-4.3-2.5
			c-1.1-0.6-1.7-1.8-1.7-3v-18.8c0-1.2,0.7-2.4,1.7-3L99,114c1-0.6,2.4-0.6,3.4,0l16.3,9.4c1.1,0.6,1.7,1.8,1.7,3v18.8
			c0,1.2-0.7,2.4-1.7,3l-16.3,9.4C101.9,158,101.3,158.1,100.7,158.1"/>
		<path class="st0" d="M105.7,145.2c-7.1,0-8.6-3.3-8.6-6c0-0.3,0.2-0.5,0.5-0.5h2.1c0.2,0,0.4,0.2,0.5,0.4c0.3,2.1,1.3,3.2,5.6,3.2
			c3.4,0,4.9-0.8,4.9-2.6c0-1.1-0.4-1.8-5.8-2.4c-4.5-0.4-7.2-1.4-7.2-5c0-3.3,2.8-5.3,7.4-5.3c5.2,0,7.8,1.8,8.1,5.7
			c0,0.1,0,0.3-0.1,0.4c-0.1,0.1-0.2,0.2-0.3,0.2h-2.1c-0.2,0-0.4-0.2-0.5-0.4c-0.5-2.3-1.7-3-5.1-3c-3.8,0-4.2,1.3-4.2,2.3
			c0,1.2,0.5,1.5,5.6,2.2c5,0.7,7.4,1.6,7.4,5.1C113.9,143.1,110.9,145.2,105.7,145.2"/>
		<path d="M143.9,53.1l-10.4-6c-0.7-0.4-1.3-0.1-1.3,0.7v28.3l-5.3-3.1c-0.7-0.4-1.8-0.4-2.5,0l-17,9.8c-0.7,0.4-1.3,1.4-1.3,2.2
			v19.6c0,0.8,0.6,1.8,1.3,2.2l17,9.8c0.7,0.4,1.8,0.4,2.5,0l17-9.8c0.7-0.4,1.3-1.4,1.3-2.2V55.3C145.2,54.5,144.6,53.5,143.9,53.1
			z M132.2,98.2c0,0.3-0.2,0.6-0.4,0.7l-5.7,3.3c-0.2,0.1-0.6,0.1-0.9,0l-5.7-3.3c-0.2-0.1-0.4-0.5-0.4-0.7v-6.5
			c0-0.3,0.2-0.6,0.4-0.7l5.7-3.3c0.2-0.1,0.6-0.1,0.9,0l5.7,3.3c0.2,0.1,0.4,0.5,0.4,0.7V98.2z"/>
		<path d="M49,82.8L32,73c-0.7-0.4-1.8-0.4-2.5,0l-17,9.8c-0.7,0.4-1.3,1.4-1.3,2.2v26.6c0,0.8,0.6,1.1,1.3,0.7l10.5-6
			c0.7-0.4,1.3-1.4,1.3-2.2V91.5c0-0.3,0.2-0.6,0.4-0.7l5.7-3.3c0.2-0.1,0.6-0.1,0.9,0l5.7,3.3c0.2,0.1,0.4,0.5,0.4,0.7v12.6
			c0,0.8,0.6,1.8,1.3,2.2l10.5,6c0.7,0.4,1.3,0.1,1.3-0.7V85C50.2,84.2,49.7,83.2,49,82.8z"/>
		<g>
			<path d="M192.6,84.9c0,0,0-0.1,0-0.1v0c0,0,0,0,0,0c0-0.1-0.1-0.2-0.1-0.3c0,0,0,0,0,0c0,0,0,0,0,0c0-0.1-0.1-0.2-0.1-0.2l0,0
				c-0.1-0.1-0.1-0.2-0.2-0.3c0,0,0,0,0-0.1c0-0.1-0.1-0.1-0.1-0.2c0,0-0.1-0.1-0.1-0.1c0,0,0-0.1-0.1-0.1c-0.1-0.1-0.1-0.1-0.2-0.2
				c0,0,0,0,0,0c-0.1-0.1-0.1-0.1-0.2-0.2l-3.9-2.2l-13.1-7.5c-0.7-0.4-1.8-0.4-2.5,0l-17,9.8c-0.7,0.4-1.3,1.4-1.3,2.2v19.6
				c0,0.8,0.6,1.8,1.3,2.2l5.2,3l11.7,6.8c0.7,0.4,1.8,0.4,2.5,0l10.4-6c0.7-0.4,0.7-1.1,0-1.5L167.1,99c-0.2-0.1-0.4-0.5-0.4-0.7
				v-6.5c0-0.3,0.2-0.6,0.4-0.7l5.7-3.3c0.2-0.1,0.6-0.1,0.9,0l5.7,3.3c0.2,0.1,0.4,0.5,0.4,0.7v5c0,0.8,0.6,1.1,1.3,0.7l5.4-3.1
				l0,0l5-2.9c0.7-0.4,1.3-1.4,1.3-2.2V86v-0.8C192.7,85.1,192.7,85,192.6,84.9z"/>
			<path class="st0" d="M173.4,90.4c-0.1-0.1-0.3-0.1-0.5,0l-3.2,1.9c-0.1,0.1-0.2,0.3-0.2,0.4v3.7c0,0.2,0.1,0.3,0.2,0.4l3.2,1.9
				c0.1,0.1,0.3,0.1,0.5,0l3.2-1.9c0.1-0.1,0.2-0.3,0.2-0.4v-3.7c0-0.2-0.1-0.3-0.2-0.4L173.4,90.4z"/>
		</g>
		<g>
			<linearGradient id="SVGID_1_" gradientUnits="userSpaceOnUse" x1="92.5538" y1="69.03" x2="56.815" y2="133.6875">
				<stop  offset="0" style="stop-color:#3F873F"/>
				<stop  offset="0.3296" style="stop-color:#3F8B3D"/>
				<stop  offset="0.6367" style="stop-color:#3E9638"/>
				<stop  offset="0.9341" style="stop-color:#3DA92E"/>
				<stop  offset="1" style="stop-color:#3DAE2B"/>
			</linearGradient>
			<path class="st1" d="M76.9,73.2L60,83c-0.7,0.4-1.3,1.4-1.3,2.2v19.6c0,0.8,0.6,1.8,1.3,2.2l17,9.8c0.7,0.4,1.8,0.4,2.5,0l17-9.8
				c0.7-0.4,1.3-1.4,1.3-2.2V85.2c0-0.8-0.6-1.8-1.3-2.2l-17-9.8C78.8,72.8,77.6,72.8,76.9,73.2z"/>
			<linearGradient id="SVGID_2_" gradientUnits="userSpaceOnUse" x1="45.857" y1="96.2474" x2="116.3647" y2="93.4886">
				<stop  offset="0" style="stop-color:#3F873F"/>
				<stop  offset="0.3296" style="stop-color:#3F8B3D"/>
				<stop  offset="0.6367" style="stop-color:#3E9638"/>
				<stop  offset="0.9341" style="stop-color:#3DA92E"/>
				<stop  offset="1" style="stop-color:#3DAE2B"/>
			</linearGradient>
			<path class="st2" d="M59,104.7c-0.4,0.7-0.2,1.6,0.5,2L77.4,117c0.7,0.4,1.6,0.2,2-0.5l18-31.2c0.4-0.7,0.2-1.6-0.5-2L79,72.9
				c-0.7-0.4-1.6-0.2-2,0.5L59,104.7z"/>
			<linearGradient id="SVGID_3_" gradientUnits="userSpaceOnUse" x1="59.7317" y1="93.4921" x2="96.9733" y2="96.4941">
				<stop  offset="0" style="stop-color:#6ABF4B"/>
				<stop  offset="9.191650e-02" style="stop-color:#6ABF4B"/>
				<stop  offset="0.2871" style="stop-color:#64B749"/>
				<stop  offset="0.5984" style="stop-color:#52A044"/>
				<stop  offset="0.8624" style="stop-color:#3F873F"/>
				<stop  offset="1" style="stop-color:#3F873F"/>
			</linearGradient>
			<path class="st3" d="M97.5,104.7c0.4,0.7,0.2,1.6-0.5,2L79,117c-0.7,0.4-1.6,0.2-2-0.5L59,85.3c-0.4-0.7-0.2-1.6,0.5-2l17.9-10.3
				c0.7-0.4,1.6-0.2,2,0.5L97.5,104.7z"/>
		</g>
	</g>
</g>
</svg>
