<?xml version="1.0" encoding="utf-8"?>
<!-- Generator: Adobe Illustrator 25.0.1, SVG Export Plug-In . SVG Version: 6.00 Build 0)  -->
<svg version="1.1" id="Layer_1" xmlns="http://www.w3.org/2000/svg" xmlns:xlink="http://www.w3.org/1999/xlink" x="0px" y="0px"
	 width="380px" height="276px" viewBox="0 0 380 276" style="enable-background:new 0 0 380 276;" xml:space="preserve">
<style type="text/css">
	.st0{clip-path:url(#SVGID_2_);}
	.st1{fill:#414141;}
	.st2{fill:#F4F4F4;}
	.st3{fill:#8B16B7;}
	.st4{fill:#E2FFBC;stroke:#000000;}
	.st5{fill:#DAFCAF;}
	.st6{fill:#C8F391;}
	.st7{fill:#AFEC62;}
	.st8{fill:#9BDE45;}
	.st9{fill:none;stroke:#FF2CEA;stroke-width:4;}
	.st10{fill:#FFE1FC;}
	.st11{fill:#F09AED;}
	.st12{fill:#FDFDFD;}
</style>
<g>
	<defs>
		<rect id="SVGID_1_" x="0" y="-0.3" width="380.7" height="270.7"/>
	</defs>
	<clipPath id="SVGID_2_">
		<use xlink:href="#SVGID_1_"  style="overflow:visible;"/>
	</clipPath>
	<g class="st0">
		<rect x="0" y="-0.3" class="st1" width="380.7" height="270.7"/>
		<rect x="0" y="-0.3" class="st2" width="380.7" height="25.1"/>
		<path class="st3" d="M12.6,21.5l3.1-7.9c0.1-0.3,0.3-0.5,0.6-0.5c0.1,0,0.2,0,0.3,0.1c0.1,0.1,0.1,0.1,0.1,0.2
			c0,0.1,0,0.2-0.1,0.3l-3.1,7.9c-0.1,0.3-0.3,0.5-0.6,0.5c-0.1,0-0.2,0-0.3-0.1c-0.1-0.1-0.1-0.1-0.1-0.2
			C12.5,21.8,12.5,21.7,12.6,21.5L12.6,21.5z"/>
		<path d="M25.7,19.3h0.8c0.5,0,0.7,0.2,0.7,0.5c0,0.2-0.1,0.4-0.3,0.5c-0.2,0.1-0.4,0.2-0.7,0.2h-1c-0.4,0-0.6-0.1-0.8-0.2
			c-0.2-0.1-0.3-0.4-0.3-0.6c0-0.2,0.1-0.4,0.2-0.8l1.3-3.1l-1,1.1c-0.2,0.3-0.5,0.4-0.7,0.4c-0.3,0-0.5-0.2-0.6-0.6L23.3,16
			l-1.3,3.1c-0.4,1.1-0.8,1.8-1,2.2c-0.2,0.4-0.5,0.7-0.9,1c-0.5,0.4-1.1,0.6-1.8,0.6c-0.7,0-1.3-0.2-1.8-0.7
			c-0.5-0.5-0.7-1-0.7-1.8c0-1,0.4-1.8,1.1-2.5c0.4-0.4,0.9-0.7,1.5-0.9c0.6-0.2,1.2-0.4,1.7-0.4c0.3,0,0.5,0.1,0.7,0.2
			c0.2,0.1,0.3,0.3,0.3,0.5c0,0.2-0.1,0.4-0.3,0.5c-0.1,0.1-0.3,0.1-0.6,0.2c-0.7,0.1-1.3,0.2-1.7,0.5c-0.4,0.2-0.6,0.5-0.8,0.8
			c-0.2,0.3-0.3,0.7-0.3,1.1c0,0.4,0.1,0.7,0.3,0.9c0.2,0.2,0.5,0.3,0.8,0.3c0.4,0,0.8-0.2,1.1-0.5c0.3-0.4,0.7-1,1-1.9l2.1-5
			c0.2-0.4,0.4-0.7,0.7-0.7c0.2,0,0.4,0.1,0.5,0.2c0.1,0.1,0.2,0.3,0.3,0.6l0.3,1.2l1.6-1.5c0.3-0.3,0.7-0.5,1-0.5
			c0.2,0,0.4,0.1,0.5,0.2c0.1,0.1,0.2,0.3,0.2,0.5c0,0.1,0,0.2-0.1,0.4l-0.1,0.3L25.7,19.3z"/>
		<path d="M31.6,19.4h0.6c0.2,0,0.4,0,0.5,0.1c0.1,0.1,0.2,0.2,0.2,0.3c0,0.2-0.1,0.4-0.2,0.5c-0.2,0.1-0.4,0.2-0.7,0.2H31
			c-0.3,0-0.5-0.1-0.6-0.3c-0.2,0.2-0.4,0.3-0.7,0.3h-0.8c-0.3,0-0.6-0.1-0.8-0.3c-0.2-0.2-0.3-0.4-0.3-0.7c0-0.2,0-0.4,0.1-0.6
			l0.7-1.7c0.2-0.5,0.5-0.7,0.8-0.7c0.2,0,0.3,0,0.4,0.1c0.1,0.1,0.2,0.2,0.2,0.3c0,0.1,0,0.2-0.1,0.4l-0.1,0.1l-0.6,1.3L29.3,19
			c0,0.1,0,0.2-0.1,0.2c0,0.2,0.1,0.2,0.3,0.2c0.4,0,0.7-0.2,0.9-0.5l0.7-1.6c0.2-0.5,0.5-0.7,0.8-0.7c0.1,0,0.3,0,0.4,0.1
			c0.1,0.1,0.2,0.2,0.2,0.3c0,0.1,0,0.3-0.1,0.5L31.6,19.4z"/>
		<path d="M36.9,19.4h0.6c0.4,0,0.7,0.2,0.7,0.5c0,0.2-0.1,0.4-0.2,0.5c-0.2,0.1-0.4,0.2-0.7,0.2h-1.1c-0.2,0-0.4-0.1-0.5-0.2
			c-0.1-0.1-0.2-0.3-0.2-0.5c0-0.1,0-0.3,0.1-0.5l0.5-1.1c0-0.1,0.1-0.2,0.1-0.3c0-0.1,0-0.2-0.1-0.2c-0.1-0.1-0.2-0.1-0.3-0.1
			c-0.4,0-0.7,0.3-0.9,0.8l-0.6,1.5c-0.2,0.5-0.5,0.7-0.8,0.7c-0.2,0-0.3,0-0.4-0.1c-0.1-0.1-0.2-0.2-0.2-0.3c0-0.1,0-0.2,0.1-0.3
			l0.1-0.1l1.1-2.6c0.1-0.3,0.4-0.5,0.7-0.5c0.3,0,0.5,0.1,0.6,0.4c0.4-0.3,0.7-0.4,1.1-0.4c0.3,0,0.6,0.1,0.8,0.3
			c0.2,0.2,0.3,0.4,0.3,0.7c0,0.2,0,0.3-0.1,0.5L36.9,19.4z"/>
		<path d="M41.4,20.6h-1.5c-0.4,0-0.8-0.2-1.1-0.5c-0.3-0.3-0.4-0.7-0.4-1.2c0-0.6,0.2-1.2,0.7-1.7c0.5-0.5,1-0.7,1.6-0.7
			c0.4,0,0.7,0.1,1,0.3c0.3,0.2,0.4,0.5,0.4,0.9c0,0.3-0.1,0.5-0.2,0.6c-0.1,0.2-0.3,0.2-0.5,0.2c-0.3,0-0.5-0.1-0.5-0.4
			c0,0,0-0.1,0-0.1c0,0,0-0.1,0-0.1c0-0.2-0.1-0.4-0.4-0.4c-0.2,0-0.4,0.1-0.6,0.4c-0.2,0.2-0.3,0.5-0.3,0.8c0,0.2,0.1,0.4,0.2,0.5
			c0.2,0.1,0.4,0.2,0.8,0.2h1c0.4,0,0.7,0.2,0.7,0.5c0,0.2-0.1,0.4-0.2,0.5C41.9,20.5,41.7,20.6,41.4,20.6z"/>
		<path d="M45,16.8c0.4-0.2,0.7-0.3,0.9-0.3c0.3,0,0.6,0.1,0.8,0.3c0.2,0.2,0.3,0.4,0.3,0.7c0,0.2,0,0.4-0.1,0.6l-0.6,1.4H47
			c0.4,0,0.7,0.2,0.7,0.5c0,0.2-0.1,0.4-0.2,0.5c-0.2,0.1-0.4,0.2-0.7,0.2h-1.1c-0.2,0-0.4-0.1-0.6-0.2c-0.2-0.1-0.2-0.3-0.2-0.5
			c0-0.1,0-0.3,0.1-0.5l0.5-1.2c0.1-0.1,0.1-0.3,0.1-0.3c0-0.2-0.1-0.3-0.4-0.3c-0.4,0-0.7,0.3-0.9,0.9L43.7,20
			c-0.2,0.5-0.5,0.7-0.8,0.7c-0.1,0-0.3,0-0.4-0.1c-0.1-0.1-0.2-0.2-0.2-0.3c0-0.1,0-0.2,0.1-0.3l0.1-0.1l2.3-5.5
			c0.2-0.5,0.5-0.7,0.8-0.7c0.1,0,0.3,0,0.4,0.1c0.1,0.1,0.2,0.2,0.2,0.3c0,0.1,0,0.3-0.1,0.5L45,16.8z"/>
		<path d="M49.3,19.4h0.6c0.4,0,0.7,0.2,0.7,0.5c0,0.2-0.1,0.4-0.2,0.5c-0.2,0.1-0.4,0.2-0.7,0.2h-0.8c-0.3,0-0.5-0.1-0.7-0.2
			c-0.2-0.1-0.3-0.3-0.3-0.5c0-0.1,0-0.3,0.1-0.4l0.9-2.1l0.1-0.1c0.2-0.4,0.4-0.6,0.8-0.6c0.1,0,0.3,0,0.4,0.1
			c0.1,0.1,0.2,0.2,0.2,0.3c0,0.1,0,0.3-0.1,0.5L49.3,19.4z M50,15c0.2,0,0.4,0.1,0.5,0.2c0.1,0.1,0.2,0.3,0.2,0.5
			c0,0.2-0.1,0.4-0.2,0.5c-0.1,0.1-0.3,0.2-0.5,0.2c-0.2,0-0.4-0.1-0.5-0.2c-0.1-0.1-0.2-0.3-0.2-0.5c0-0.2,0.1-0.4,0.2-0.5
			C49.6,15,49.8,15,50,15z"/>
		<path d="M52,19c0,0.3,0.2,0.4,0.6,0.4h1.6c0.4,0,0.7,0.2,0.7,0.5c0,0.2-0.1,0.4-0.2,0.5c-0.2,0.1-0.4,0.2-0.7,0.2h-1.5
			c-0.6,0-1-0.1-1.3-0.4c-0.3-0.3-0.4-0.7-0.4-1.2c0-0.7,0.2-1.2,0.7-1.7s1-0.7,1.6-0.7c0.5,0,0.8,0.1,1.1,0.4
			c0.3,0.2,0.4,0.5,0.4,0.9c0,0.5-0.2,0.8-0.6,1c-0.2,0.1-0.5,0.2-1,0.2H52z M52.3,18.1h0.6c0.4,0,0.6-0.1,0.5-0.2
			c0-0.2-0.1-0.3-0.4-0.3C52.7,17.6,52.5,17.8,52.3,18.1z"/>
		<path d="M56.8,18l-0.1,0.2c-0.2,0.3-0.4,0.5-0.7,0.5c-0.1,0-0.3,0-0.4-0.1c-0.1-0.1-0.2-0.2-0.2-0.3c0-0.1,0.1-0.3,0.2-0.5
			l0.7-1.4c0.2-0.3,0.4-0.5,0.6-0.5c0.1,0,0.3,0,0.4,0.1c0.1,0.1,0.1,0.2,0.1,0.3c0,0,0,0.1,0,0.2c0,0.1,0,0.1,0,0.2
			c0,0.2,0.1,0.4,0.2,0.7l0.3,0.4c0.3,0.4,0.5,0.8,0.5,1.2c0,0.4-0.2,0.8-0.5,1.1c-0.3,0.3-0.7,0.4-1.2,0.4h-1.1
			c-0.4,0-0.7-0.2-0.7-0.5c0-0.2,0.1-0.4,0.2-0.5c0.2-0.1,0.4-0.2,0.7-0.2h0.6c0.5,0,0.7-0.2,0.7-0.5c0-0.1,0-0.3-0.1-0.4L56.8,18z"
			/>
		<path class="st3" d="M58.9,21.5l3.1-7.9c0.1-0.3,0.3-0.5,0.6-0.5c0.1,0,0.2,0,0.3,0.1c0.1,0.1,0.1,0.1,0.1,0.2
			c0,0.1,0,0.2-0.1,0.3l-3.1,7.9c-0.1,0.3-0.3,0.5-0.6,0.5c-0.1,0-0.2,0-0.3-0.1c-0.1-0.1-0.1-0.1-0.1-0.2
			C58.9,21.8,58.9,21.7,58.9,21.5L58.9,21.5z"/>
		<path class="st4" d="M128.1,198.6c-27.9-47.5-96.8-60.5-127.8-61.1v132.7h380.4v-135c-29.2,0.6-75.3,45.3-94.6,67.5
			C219.7,281,153.1,232.6,128.1,198.6z"/>
		<path class="st5" d="M127.8,204.7C99.9,157.2,31,144.2,0,143.6v132.7h380.4v-135c-29.2,0.6-75.3,45.3-94.6,67.5
			C219.5,287,152.8,238.6,127.8,204.7z"/>
		<path class="st6" d="M127.8,218.9C99.9,171.5,31,158.4,0,157.9v132.7h380.4v-135c-29.2,0.6-75.3,45.3-94.6,67.5
			C219.5,301.3,152.8,252.9,127.8,218.9z"/>
		<path class="st7" d="M127.8,237.2C99.9,189.7,31,176.7,0,176.1v132.7h380.4v-135c-29.2,0.6-75.3,45.3-94.6,67.5
			C219.5,319.6,152.8,271.2,127.8,237.2z"/>
		<path class="st8" d="M127.8,250.9C99.9,203.5,31,190.4,0,189.9v132.7h380.4v-135c-29.2,0.6-75.3,45.3-94.6,67.5
			C219.5,333.3,152.8,284.9,127.8,250.9z"/>
		<path d="M252.3,18.7h-0.4v-1.6h-1.7v1.6h-0.4v-3.4h0.4v1.5h1.7v-1.5h0.4V18.7z M252.8,17.4c0-0.2,0-0.5,0.1-0.7
			c0.1-0.2,0.2-0.3,0.4-0.5c0.2-0.1,0.4-0.2,0.6-0.2c0.3,0,0.6,0.1,0.8,0.4c0.2,0.2,0.3,0.6,0.3,0.9v0c0,0.2,0,0.5-0.1,0.7
			c-0.1,0.2-0.2,0.3-0.4,0.5c-0.2,0.1-0.4,0.2-0.6,0.2c-0.3,0-0.6-0.1-0.8-0.4C252.9,18.1,252.8,17.8,252.8,17.4L252.8,17.4z
			 M253.2,17.5c0,0.3,0.1,0.5,0.2,0.7c0.1,0.2,0.3,0.3,0.5,0.3c0.2,0,0.4-0.1,0.5-0.3c0.1-0.2,0.2-0.4,0.2-0.7
			c0-0.3-0.1-0.5-0.2-0.7c-0.1-0.2-0.3-0.3-0.5-0.3c-0.2,0-0.4,0.1-0.5,0.3C253.3,16.9,253.2,17.2,253.2,17.5z M256,16.2l0,0.3
			c0.2-0.2,0.4-0.3,0.7-0.3c0.4,0,0.6,0.1,0.7,0.4c0.1-0.1,0.2-0.2,0.3-0.3c0.1-0.1,0.3-0.1,0.5-0.1c0.6,0,0.8,0.3,0.8,0.9v1.7h-0.4
			V17c0-0.2,0-0.3-0.1-0.4c-0.1-0.1-0.2-0.1-0.4-0.1c-0.2,0-0.3,0-0.4,0.1c-0.1,0.1-0.2,0.2-0.2,0.4v1.7h-0.4V17
			c0-0.4-0.2-0.5-0.5-0.5c-0.3,0-0.5,0.1-0.6,0.4v1.8h-0.4v-2.5H256z M260.7,18.7c-0.3,0-0.6-0.1-0.8-0.3c-0.2-0.2-0.3-0.5-0.3-0.9
			v-0.1c0-0.2,0-0.5,0.1-0.7c0.1-0.2,0.2-0.4,0.4-0.5c0.2-0.1,0.4-0.2,0.6-0.2c0.3,0,0.6,0.1,0.8,0.3c0.2,0.2,0.3,0.5,0.3,0.9v0.2
			H260c0,0.2,0.1,0.4,0.2,0.6c0.1,0.2,0.3,0.2,0.5,0.2c0.2,0,0.3,0,0.4-0.1c0.1-0.1,0.2-0.1,0.3-0.2l0.3,0.2
			C261.5,18.6,261.1,18.7,260.7,18.7z M260.7,16.5c-0.2,0-0.3,0.1-0.4,0.2c-0.1,0.1-0.2,0.3-0.2,0.5h1.3v0c0-0.2-0.1-0.4-0.2-0.5
			C261,16.5,260.8,16.5,260.7,16.5z"/>
		<path d="M276.5,17.6c0,0.4-0.2,0.6-0.4,0.8c-0.2,0.2-0.5,0.3-0.9,0.3c-0.4,0-0.7-0.1-1-0.4c-0.2-0.3-0.4-0.7-0.4-1.2v-0.3
			c0-0.3,0.1-0.6,0.2-0.8c0.1-0.2,0.3-0.4,0.5-0.5c0.2-0.1,0.4-0.2,0.7-0.2c0.4,0,0.6,0.1,0.9,0.3c0.2,0.2,0.3,0.5,0.4,0.8H276
			c0-0.3-0.1-0.5-0.3-0.6c-0.1-0.1-0.3-0.2-0.5-0.2c-0.3,0-0.5,0.1-0.7,0.3c-0.2,0.2-0.2,0.5-0.2,0.9v0.3c0,0.4,0.1,0.7,0.2,0.9
			c0.2,0.2,0.4,0.3,0.6,0.3c0.2,0,0.4-0.1,0.6-0.2c0.1-0.1,0.2-0.3,0.3-0.6H276.5z M276.8,17.4c0-0.2,0.1-0.5,0.1-0.7
			c0.1-0.2,0.2-0.3,0.4-0.5c0.2-0.1,0.4-0.2,0.6-0.2c0.3,0,0.6,0.1,0.8,0.4c0.2,0.2,0.3,0.6,0.3,0.9v0c0,0.2,0,0.5-0.1,0.7
			c-0.1,0.2-0.2,0.3-0.4,0.5c-0.2,0.1-0.4,0.2-0.6,0.2c-0.3,0-0.6-0.1-0.8-0.4C276.9,18.1,276.8,17.8,276.8,17.4L276.8,17.4z
			 M277.3,17.5c0,0.3,0.1,0.5,0.2,0.7c0.1,0.2,0.3,0.3,0.5,0.3c0.2,0,0.4-0.1,0.5-0.3c0.1-0.2,0.2-0.4,0.2-0.7
			c0-0.3-0.1-0.5-0.2-0.7c-0.1-0.2-0.3-0.3-0.5-0.3c-0.2,0-0.4,0.1-0.5,0.3C277.3,16.9,277.3,17.2,277.3,17.5z M280,16.2l0,0.3
			c0.2-0.2,0.4-0.4,0.8-0.4c0.5,0,0.8,0.3,0.8,0.9v1.7h-0.4V17c0-0.2,0-0.3-0.1-0.4c-0.1-0.1-0.2-0.1-0.4-0.1c-0.1,0-0.3,0-0.4,0.1
			c-0.1,0.1-0.2,0.2-0.2,0.3v1.8h-0.4v-2.5H280z M282.7,15.6v0.6h0.5v0.3h-0.5v1.6c0,0.1,0,0.2,0.1,0.2c0,0,0.1,0.1,0.2,0.1
			c0.1,0,0.1,0,0.2,0v0.3c-0.1,0-0.2,0-0.3,0c-0.2,0-0.3-0.1-0.4-0.2c-0.1-0.1-0.1-0.3-0.1-0.5v-1.6h-0.5v-0.3h0.5v-0.6H282.7z
			 M285.2,18.7c0,0,0-0.1-0.1-0.3c-0.2,0.2-0.4,0.3-0.7,0.3c-0.2,0-0.5-0.1-0.6-0.2c-0.2-0.1-0.2-0.3-0.2-0.5c0-0.3,0.1-0.5,0.3-0.6
			c0.2-0.1,0.5-0.2,0.8-0.2h0.4V17c0-0.2,0-0.3-0.1-0.4c-0.1-0.1-0.2-0.1-0.4-0.1c-0.2,0-0.3,0-0.4,0.1c-0.1,0.1-0.2,0.2-0.2,0.3
			h-0.4c0-0.1,0-0.2,0.1-0.4c0.1-0.1,0.2-0.2,0.4-0.3c0.2-0.1,0.3-0.1,0.5-0.1c0.3,0,0.5,0.1,0.7,0.2c0.2,0.1,0.2,0.3,0.3,0.6v1.2
			c0,0.2,0,0.4,0.1,0.6v0H285.2z M284.5,18.4c0.1,0,0.3,0,0.4-0.1c0.1-0.1,0.2-0.2,0.3-0.3v-0.5h-0.3c-0.5,0-0.8,0.2-0.8,0.5
			c0,0.1,0,0.2,0.1,0.3C284.2,18.3,284.3,18.4,284.5,18.4z M287.2,18.4c0.2,0,0.3,0,0.4-0.1c0.1-0.1,0.2-0.2,0.2-0.3h0.4
			c0,0.1-0.1,0.3-0.2,0.4c-0.1,0.1-0.2,0.2-0.4,0.3c-0.2,0.1-0.3,0.1-0.5,0.1c-0.3,0-0.6-0.1-0.8-0.3c-0.2-0.2-0.3-0.5-0.3-0.9v-0.1
			c0-0.2,0-0.5,0.1-0.7c0.1-0.2,0.2-0.3,0.4-0.4c0.2-0.1,0.4-0.2,0.6-0.2c0.3,0,0.5,0.1,0.7,0.3c0.2,0.2,0.3,0.4,0.3,0.7h-0.4
			c0-0.2-0.1-0.3-0.2-0.4c-0.1-0.1-0.2-0.2-0.4-0.2c-0.2,0-0.4,0.1-0.5,0.2c-0.1,0.2-0.2,0.4-0.2,0.7v0.1c0,0.3,0.1,0.5,0.2,0.7
			S286.9,18.4,287.2,18.4z M289.2,15.6v0.6h0.5v0.3h-0.5v1.6c0,0.1,0,0.2,0.1,0.2c0,0,0.1,0.1,0.2,0.1c0,0,0.1,0,0.2,0v0.3
			c-0.1,0-0.2,0-0.3,0c-0.2,0-0.3-0.1-0.4-0.2c-0.1-0.1-0.1-0.3-0.1-0.5v-1.6h-0.5v-0.3h0.5v-0.6H289.2z"/>
		<line class="st9" x1="248.8" y1="19.8" x2="261.7" y2="19.8"/>
		<line class="st9" x1="273.6" y1="20" x2="290.3" y2="19.8"/>
		<path class="st10" d="M107.1,49.9c-1.5-0.4-2.5-0.9-3.2-1.5c-0.7-0.6-1-1.4-1-2.3c0-1,0.4-1.9,1.2-2.5c0.8-0.7,1.9-1,3.2-1
			c0.9,0,1.7,0.2,2.4,0.5c0.7,0.3,1.2,0.8,1.6,1.4c0.4,0.6,0.6,1.3,0.6,2h-1.7c0-0.8-0.2-1.4-0.7-1.8c-0.5-0.5-1.2-0.7-2.1-0.7
			c-0.8,0-1.5,0.2-2,0.6c-0.5,0.4-0.7,0.9-0.7,1.5c0,0.5,0.2,1,0.7,1.3c0.5,0.4,1.2,0.7,2.3,1c1.1,0.3,1.9,0.6,2.5,1
			c0.6,0.4,1.1,0.8,1.4,1.3c0.3,0.5,0.4,1.1,0.4,1.7c0,1.1-0.4,1.9-1.2,2.5c-0.8,0.6-1.9,0.9-3.3,0.9c-0.9,0-1.7-0.2-2.5-0.5
			c-0.8-0.3-1.4-0.8-1.8-1.4c-0.4-0.6-0.6-1.3-0.6-2h1.7c0,0.8,0.3,1.4,0.9,1.9c0.6,0.5,1.4,0.7,2.3,0.7c0.9,0,1.6-0.2,2.1-0.6
			c0.5-0.4,0.7-0.9,0.7-1.5c0-0.6-0.2-1.1-0.7-1.5C109.1,50.6,108.3,50.3,107.1,49.9z M123.8,55.7h-1.7l-6.5-10v10h-1.7v-13h1.7
			l6.5,10v-10h1.7V55.7z M133.9,52.3h-5.4l-1.2,3.4h-1.8l5-13h1.5l5,13h-1.8L133.9,52.3z M129,50.9h4.4l-2.2-6.1L129,50.9z
			 M147.8,51.6c-0.2,1.4-0.7,2.4-1.5,3.2c-0.8,0.7-2,1.1-3.4,1.1c-1.5,0-2.8-0.5-3.7-1.6c-0.9-1.1-1.4-2.6-1.4-4.4v-1.2
			c0-1.2,0.2-2.3,0.6-3.2c0.4-0.9,1-1.6,1.8-2.1c0.8-0.5,1.7-0.7,2.7-0.7c1.4,0,2.5,0.4,3.3,1.2c0.8,0.8,1.3,1.8,1.5,3.2h-1.7
			c-0.1-1-0.5-1.8-1-2.2c-0.5-0.5-1.2-0.7-2.1-0.7c-1.1,0-2,0.4-2.6,1.2c-0.6,0.8-0.9,2-0.9,3.4v1.3c0,1.4,0.3,2.5,0.9,3.4
			c0.6,0.8,1.4,1.2,2.5,1.2c1,0,1.7-0.2,2.2-0.6c0.5-0.4,0.8-1.2,1-2.3H147.8z M153.1,49.7l-1.6,1.6v4.4h-1.7v-13h1.7v6.4l5.8-6.4
			h2.1l-5.1,5.7l5.5,7.2h-2L153.1,49.7z M113.2,77.1h-1.7l-6.5-10v10h-1.7v-13h1.7l6.5,10v-10h1.7V77.1z M125.1,64.1V73
			c0,1.2-0.4,2.2-1.2,3c-0.8,0.8-1.8,1.2-3.1,1.3l-0.5,0c-1.4,0-2.6-0.4-3.4-1.1c-0.8-0.8-1.3-1.8-1.3-3.2v-8.8h1.7v8.8
			c0,0.9,0.3,1.7,0.8,2.2c0.5,0.5,1.3,0.8,2.2,0.8c1,0,1.7-0.3,2.2-0.8c0.5-0.5,0.8-1.2,0.8-2.2v-8.8H125.1z M136.5,65.6h-4.2v11.6
			h-1.7V65.6h-4.2v-1.4h10V65.6z M142.9,71.9h-3v5.2h-1.7v-13h4.3c1.5,0,2.6,0.3,3.4,1c0.8,0.7,1.2,1.6,1.2,2.9
			c0,0.8-0.2,1.5-0.7,2.1c-0.4,0.6-1,1-1.8,1.3l3,5.5v0.1h-1.8L142.9,71.9z M139.9,70.5h2.6c0.8,0,1.5-0.2,2-0.7
			c0.5-0.4,0.8-1,0.8-1.8c0-0.8-0.2-1.4-0.7-1.8c-0.5-0.4-1.2-0.6-2.1-0.7h-2.6V70.5z M151,77.1h-1.7v-13h1.7V77.1z M162.5,65.6
			h-4.2v11.6h-1.7V65.6h-4.2v-1.4h10V65.6z M166,77.1h-1.7v-13h1.7V77.1z M178.9,71.1c0,1.3-0.2,2.4-0.6,3.3c-0.4,0.9-1,1.7-1.8,2.2
			c-0.8,0.5-1.7,0.7-2.7,0.7c-1,0-1.9-0.2-2.7-0.7c-0.8-0.5-1.4-1.2-1.8-2.1c-0.4-0.9-0.7-2-0.7-3.2v-0.9c0-1.2,0.2-2.3,0.7-3.3
			c0.4-1,1-1.7,1.8-2.2c0.8-0.5,1.7-0.8,2.7-0.8c1,0,2,0.3,2.7,0.8c0.8,0.5,1.4,1.2,1.8,2.2c0.4,0.9,0.6,2.1,0.6,3.3V71.1z
			 M177.2,70.2c0-1.5-0.3-2.7-0.9-3.5c-0.6-0.8-1.5-1.2-2.6-1.2c-1.1,0-1.9,0.4-2.6,1.2c-0.6,0.8-0.9,2-1,3.4v1
			c0,1.5,0.3,2.7,0.9,3.5c0.6,0.8,1.5,1.3,2.6,1.3c1.1,0,2-0.4,2.6-1.2c0.6-0.8,0.9-2,0.9-3.5V70.2z M191.1,77.1h-1.7l-6.5-10v10
			h-1.7v-13h1.7l6.5,10v-10h1.7V77.1z M105.1,98.5h-1.7v-13h1.7V98.5z M117.9,98.5h-1.7l-6.5-10v10H108v-13h1.7l6.5,10v-10h1.7V98.5
			z M127.9,92.8h-5.4v5.7h-1.7v-13h8V87h-6.3v4.4h5.4V92.8z M140.5,92.5c0,1.3-0.2,2.4-0.6,3.3c-0.4,0.9-1,1.7-1.8,2.2
			c-0.8,0.5-1.7,0.7-2.7,0.7c-1,0-1.9-0.2-2.7-0.7c-0.8-0.5-1.4-1.2-1.8-2.1c-0.4-0.9-0.7-2-0.7-3.2v-0.9c0-1.2,0.2-2.3,0.7-3.3
			c0.4-1,1-1.7,1.8-2.2c0.8-0.5,1.7-0.8,2.7-0.8c1,0,2,0.3,2.7,0.8c0.8,0.5,1.4,1.2,1.8,2.2c0.4,0.9,0.6,2.1,0.6,3.3V92.5z
			 M138.8,91.6c0-1.5-0.3-2.7-0.9-3.5c-0.6-0.8-1.5-1.2-2.6-1.2c-1.1,0-1.9,0.4-2.6,1.2c-0.6,0.8-0.9,2-1,3.4v1
			c0,1.5,0.3,2.7,0.9,3.5c0.6,0.8,1.5,1.3,2.6,1.3c1.1,0,2-0.4,2.6-1.2c0.6-0.8,0.9-2,0.9-3.5V91.6z M147.5,93.3h-3v5.2h-1.7v-13
			h4.3c1.5,0,2.6,0.3,3.4,1c0.8,0.7,1.2,1.6,1.2,2.9c0,0.8-0.2,1.5-0.7,2.1c-0.4,0.6-1,1-1.8,1.3l3,5.5v0.1h-1.8L147.5,93.3z
			 M144.5,91.9h2.6c0.8,0,1.5-0.2,2-0.7c0.5-0.4,0.8-1,0.8-1.8c0-0.8-0.2-1.4-0.7-1.8c-0.5-0.4-1.2-0.6-2.1-0.7h-2.6V91.9z
			 M156,85.6l4.2,10.6l4.2-10.6h2.2v13h-1.7v-5l0.2-5.5l-4.3,10.5h-1.3l-4.2-10.5l0.2,5.4v5h-1.7v-13H156z M176.7,95.1h-5.4
			l-1.2,3.4h-1.8l5-13h1.5l5,13H178L176.7,95.1z M171.8,93.7h4.4l-2.2-6.1L171.8,93.7z M189,87h-4.2v11.6h-1.7V87H179v-1.4h10V87z
			 M192.5,98.5h-1.7v-13h1.7V98.5z M205.3,92.5c0,1.3-0.2,2.4-0.6,3.3c-0.4,0.9-1,1.7-1.8,2.2c-0.8,0.5-1.7,0.7-2.7,0.7
			c-1,0-1.9-0.2-2.7-0.7c-0.8-0.5-1.4-1.2-1.8-2.1c-0.4-0.9-0.7-2-0.7-3.2v-0.9c0-1.2,0.2-2.3,0.7-3.3c0.4-1,1-1.7,1.8-2.2
			c0.8-0.5,1.7-0.8,2.7-0.8c1,0,2,0.3,2.7,0.8c0.8,0.5,1.4,1.2,1.8,2.2c0.4,0.9,0.6,2.1,0.6,3.3V92.5z M203.6,91.6
			c0-1.5-0.3-2.7-0.9-3.5c-0.6-0.8-1.5-1.2-2.6-1.2c-1.1,0-1.9,0.4-2.6,1.2c-0.6,0.8-0.9,2-1,3.4v1c0,1.5,0.3,2.7,0.9,3.5
			c0.6,0.8,1.5,1.3,2.6,1.3c1.1,0,2-0.4,2.6-1.2c0.6-0.8,0.9-2,0.9-3.5V91.6z M217.6,98.5h-1.7l-6.5-10v10h-1.7v-13h1.7l6.5,10v-10
			h1.7V98.5z M231.7,95.1h-5.4l-1.2,3.4h-1.8l5-13h1.5l5,13H233L231.7,95.1z M226.8,93.7h4.4l-2.2-6.1L226.8,93.7z M244,87h-4.2
			v11.6h-1.7V87H234v-1.4h10V87z M107.2,113.5l3.4-6.5h1.9l-4.5,8.1v4.8h-1.7v-4.8l-4.5-8.1h2L107.2,113.5z M123.7,113.9
			c0,1.3-0.2,2.4-0.6,3.3c-0.4,0.9-1,1.7-1.8,2.2c-0.8,0.5-1.7,0.7-2.7,0.7c-1,0-1.9-0.2-2.7-0.7c-0.8-0.5-1.4-1.2-1.8-2.1
			c-0.4-0.9-0.7-2-0.7-3.2v-0.9c0-1.2,0.2-2.3,0.7-3.3c0.4-1,1-1.7,1.8-2.2c0.8-0.5,1.7-0.8,2.7-0.8c1,0,2,0.3,2.7,0.8
			c0.8,0.5,1.4,1.2,1.8,2.2c0.4,0.9,0.6,2.1,0.6,3.3V113.9z M122,113c0-1.5-0.3-2.7-0.9-3.5c-0.6-0.8-1.5-1.2-2.6-1.2
			c-1.1,0-1.9,0.4-2.6,1.2c-0.6,0.8-0.9,2-1,3.4v1c0,1.5,0.3,2.7,0.9,3.5c0.6,0.8,1.5,1.3,2.6,1.3c1.1,0,2-0.4,2.6-1.2
			c0.6-0.8,0.9-2,0.9-3.5V113z M135.1,107v8.8c0,1.2-0.4,2.2-1.2,3c-0.8,0.8-1.8,1.2-3.1,1.3l-0.5,0c-1.4,0-2.6-0.4-3.4-1.1
			c-0.8-0.8-1.3-1.8-1.3-3.2V107h1.7v8.8c0,0.9,0.3,1.7,0.8,2.2c0.5,0.5,1.3,0.8,2.2,0.8c1,0,1.7-0.3,2.2-0.8
			c0.5-0.5,0.8-1.2,0.8-2.2V107H135.1z M142.3,114.7h-3v5.2h-1.7v-13h4.3c1.5,0,2.6,0.3,3.4,1c0.8,0.7,1.2,1.6,1.2,2.9
			c0,0.8-0.2,1.5-0.7,2.1c-0.4,0.6-1,1-1.8,1.3l3,5.5v0.1h-1.8L142.3,114.7z M139.2,113.3h2.6c0.8,0,1.5-0.2,2-0.7
			c0.5-0.4,0.8-1,0.8-1.8c0-0.8-0.2-1.4-0.7-1.8c-0.5-0.4-1.2-0.6-2.1-0.7h-2.6V113.3z M159.9,114.2h-5.4v5.7h-1.7v-13h8v1.4h-6.3
			v4.4h5.4V114.2z M164.4,119.9h-1.7v-13h1.7V119.9z M177.2,119.9h-1.7l-6.5-10v10h-1.7v-13h1.7l6.5,10v-10h1.7V119.9z M189.5,118.2
			c-0.4,0.6-1.1,1.1-1.8,1.4c-0.8,0.3-1.7,0.5-2.7,0.5c-1.1,0-2-0.2-2.8-0.7c-0.8-0.5-1.5-1.2-1.9-2.1c-0.4-0.9-0.7-2-0.7-3.2v-1.1
			c0-2,0.5-3.5,1.4-4.5c0.9-1.1,2.2-1.6,3.8-1.6c1.4,0,2.4,0.3,3.3,1c0.8,0.7,1.3,1.7,1.5,2.9h-1.7c-0.3-1.7-1.3-2.6-3.1-2.6
			c-1.1,0-2,0.4-2.6,1.2c-0.6,0.8-0.9,2-0.9,3.5v1.1c0,1.5,0.3,2.6,1,3.5c0.7,0.9,1.6,1.3,2.7,1.3c0.6,0,1.2-0.1,1.7-0.2
			c0.5-0.1,0.9-0.4,1.2-0.7v-2.9h-3v-1.4h4.7V118.2z M199.5,113.9h-5.6v4.6h6.5v1.4h-8.2v-13h8.1v1.4h-6.4v4.2h5.6V113.9z
			 M207,114.7h-3v5.2h-1.7v-13h4.3c1.5,0,2.6,0.3,3.4,1c0.8,0.7,1.2,1.6,1.2,2.9c0,0.8-0.2,1.5-0.7,2.1c-0.4,0.6-1,1-1.8,1.3l3,5.5
			v0.1h-1.8L207,114.7z M203.9,113.3h2.6c0.8,0,1.5-0.2,2-0.7c0.5-0.4,0.8-1,0.8-1.8c0-0.8-0.2-1.4-0.7-1.8
			c-0.5-0.4-1.2-0.6-2.1-0.7h-2.6V113.3z M112.2,129.8h-4.2v11.6h-1.7v-11.6h-4.2v-1.4h10V129.8z M115.7,141.4H114v-13h1.7V141.4z
			 M120.3,136.3v5.1h-1.7v-13h4.8c1.4,0,2.5,0.4,3.3,1.1c0.8,0.7,1.2,1.7,1.2,2.9c0,1.3-0.4,2.2-1.2,2.9c-0.8,0.7-1.9,1-3.4,1H120.3
			z M120.3,134.9h3.1c0.9,0,1.6-0.2,2.1-0.6c0.5-0.4,0.7-1.1,0.7-1.9c0-0.8-0.2-1.4-0.7-1.9s-1.2-0.7-2-0.7h-3.2V134.9z
			 M133.6,135.6c-1.5-0.4-2.5-0.9-3.2-1.5c-0.7-0.6-1-1.4-1-2.3c0-1,0.4-1.9,1.2-2.5c0.8-0.7,1.9-1,3.2-1c0.9,0,1.7,0.2,2.4,0.5
			c0.7,0.3,1.2,0.8,1.6,1.4c0.4,0.6,0.6,1.3,0.6,2h-1.7c0-0.8-0.2-1.4-0.7-1.8c-0.5-0.5-1.2-0.7-2.1-0.7c-0.8,0-1.5,0.2-2,0.6
			c-0.5,0.4-0.7,0.9-0.7,1.5c0,0.5,0.2,1,0.7,1.3c0.5,0.4,1.2,0.7,2.3,1c1.1,0.3,1.9,0.6,2.5,1c0.6,0.4,1.1,0.8,1.4,1.3
			c0.3,0.5,0.4,1.1,0.4,1.7c0,1.1-0.4,1.9-1.2,2.5c-0.8,0.6-1.9,0.9-3.3,0.9c-0.9,0-1.7-0.2-2.5-0.5c-0.8-0.3-1.4-0.8-1.8-1.4
			c-0.4-0.6-0.6-1.3-0.6-2h1.7c0,0.8,0.3,1.4,0.9,1.9c0.6,0.5,1.4,0.7,2.3,0.7c0.9,0,1.6-0.2,2.1-0.6c0.5-0.4,0.7-0.9,0.7-1.5
			c0-0.6-0.2-1.1-0.7-1.5C135.6,136.3,134.8,135.9,133.6,135.6z M140.2,140.5c0-0.3,0.1-0.5,0.2-0.7c0.2-0.2,0.4-0.3,0.8-0.3
			c0.3,0,0.6,0.1,0.8,0.3c0.2,0.2,0.3,0.4,0.3,0.7c0,0.3-0.1,0.5-0.3,0.7c-0.2,0.2-0.4,0.3-0.8,0.3c-0.3,0-0.6-0.1-0.8-0.3
			C140.2,141,140.2,140.8,140.2,140.5z"/>
		<path class="st11" d="M304.3,11h18c2.6,0,4.8,2.1,4.8,4.8l0,0c0,2.6-2.1,4.8-4.8,4.8h-18c-2.6,0-4.8-2.1-4.8-4.8l0,0
			C299.5,13.2,301.6,11,304.3,11z"/>
		<path class="st12" d="M306.5,16.4c-0.4-0.1-0.7-0.2-0.8-0.4c-0.2-0.2-0.3-0.4-0.3-0.6c0-0.3,0.1-0.5,0.3-0.7
			c0.2-0.2,0.5-0.3,0.8-0.3c0.2,0,0.4,0,0.6,0.1c0.2,0.1,0.3,0.2,0.4,0.4c0.1,0.2,0.2,0.3,0.2,0.5h-0.4c0-0.2-0.1-0.4-0.2-0.5
			c-0.1-0.1-0.3-0.2-0.5-0.2c-0.2,0-0.4,0-0.5,0.1c-0.1,0.1-0.2,0.2-0.2,0.4c0,0.1,0.1,0.3,0.2,0.4c0.1,0.1,0.3,0.2,0.6,0.3
			c0.3,0.1,0.5,0.2,0.7,0.3c0.2,0.1,0.3,0.2,0.4,0.3c0.1,0.1,0.1,0.3,0.1,0.4c0,0.3-0.1,0.5-0.3,0.7c-0.2,0.2-0.5,0.2-0.9,0.2
			c-0.2,0-0.4,0-0.7-0.1c-0.2-0.1-0.4-0.2-0.5-0.4c-0.1-0.2-0.2-0.3-0.2-0.5h0.4c0,0.2,0.1,0.4,0.2,0.5c0.2,0.1,0.4,0.2,0.6,0.2
			c0.2,0,0.4,0,0.5-0.1c0.1-0.1,0.2-0.2,0.2-0.4c0-0.2-0.1-0.3-0.2-0.4C307,16.6,306.8,16.5,306.5,16.4z M308.7,17.9h-0.4v-3.4h0.4
			V17.9z M311.9,17.5c-0.1,0.2-0.3,0.3-0.5,0.4c-0.2,0.1-0.4,0.1-0.7,0.1c-0.3,0-0.5-0.1-0.7-0.2c-0.2-0.1-0.4-0.3-0.5-0.6
			c-0.1-0.2-0.2-0.5-0.2-0.8v-0.3c0-0.5,0.1-0.9,0.4-1.2c0.2-0.3,0.6-0.4,1-0.4c0.4,0,0.6,0.1,0.9,0.3c0.2,0.2,0.3,0.4,0.4,0.8h-0.4
			c-0.1-0.4-0.4-0.7-0.8-0.7c-0.3,0-0.5,0.1-0.7,0.3c-0.2,0.2-0.2,0.5-0.2,0.9v0.3c0,0.4,0.1,0.7,0.3,0.9c0.2,0.2,0.4,0.3,0.7,0.3
			c0.2,0,0.3,0,0.4-0.1c0.1,0,0.2-0.1,0.3-0.2v-0.8h-0.8v-0.4h1.2V17.5z M315.2,17.9h-0.4l-1.7-2.6v2.6h-0.4v-3.4h0.4l1.7,2.6v-2.6
			h0.4V17.9z M319.4,14.5v2.3c0,0.3-0.1,0.6-0.3,0.8c-0.2,0.2-0.5,0.3-0.8,0.3l-0.1,0c-0.4,0-0.7-0.1-0.9-0.3
			c-0.2-0.2-0.3-0.5-0.3-0.8v-2.3h0.4v2.3c0,0.2,0.1,0.4,0.2,0.6c0.1,0.1,0.3,0.2,0.6,0.2c0.3,0,0.4-0.1,0.6-0.2
			c0.1-0.1,0.2-0.3,0.2-0.6v-2.3H319.4z M320.5,16.6v1.3h-0.4v-3.4h1.2c0.4,0,0.7,0.1,0.9,0.3c0.2,0.2,0.3,0.4,0.3,0.8
			c0,0.3-0.1,0.6-0.3,0.8c-0.2,0.2-0.5,0.3-0.9,0.3H320.5z M320.5,16.2h0.8c0.2,0,0.4-0.1,0.5-0.2c0.1-0.1,0.2-0.3,0.2-0.5
			c0-0.2-0.1-0.4-0.2-0.5c-0.1-0.1-0.3-0.2-0.5-0.2h-0.8V16.2z"/>
	</g>
</g>
</svg>
