<?xml version="1.0" encoding="utf-8"?>
<!-- Generator: Adobe Illustrator 25.0.1, SVG Export Plug-In . SVG Version: 6.00 Build 0)  -->
<svg version="1.1" id="Layer_1" xmlns="http://www.w3.org/2000/svg" xmlns:xlink="http://www.w3.org/1999/xlink" x="0px" y="0px"
	 width="970.3px" height="411px" viewBox="0 0 970.3 411" style="enable-background:new 0 0 970.3 411;" xml:space="preserve">
<path d="M430.3,287.4h-12.6c-0.4-0.8-0.9-1.7-1.3-2.7c-2.8-6.8-7.9-10.9-15-12.5c-12.1-2.7-22.8,2.8-26.7,13.9
	c-0.4,1.2-0.6,3,0.1,3.9c8.2,11,16.6,21.8,25,32.7c9.4-1.4,14.9-6.8,17.7-15.5h12.8c-0.3,1.6-0.6,3.1-1,4.7
	c-4.3,12.9-13.5,20.3-26.8,22.3c-5,0.8-10.1,0.6-15-0.4c-14.8-3.2-23.4-12.9-26.7-27.4c-1.7-7.4-1.3-15.2,1.2-22.4
	c0.9-2.7,0.3-4.4-1.2-6.4c-8.8-11.3-17.5-22.7-26.2-34.2c-1.4-1.9-2.8-3-5.4-3c-31.2,0.1-62.5,0.1-93.7,0.1c-0.8,0-1.5,0.1-2.7,0.2
	c-0.2,5.8-0.4,11.5-0.4,17.1c-0.2,23.7-0.4,47.3-0.6,71c0,0.9,0,1.9,0.2,2.8c0.5,3,0,3.4-2.8,3.2c-7.2-0.4-14.5-0.7-21.7-0.8
	c-1.1,0-2.3,0.7-3.7,1.1l-1.9-2.3c0.5-1.7,0.8-3.5,1-5.2c0.3-27.8,0.6-55.5,0.9-83.3c0-1.1-0.1-2.2-0.2-3.5
	c-1.6-0.1-2.9-0.3-4.3-0.3c-31.7-0.3-63.4-0.5-95.1-0.8c-1.9-0.1-3.8-0.4-5.6-0.7c2-2.7,4.2-2,6.2-2c18.9-0.2,37.9-0.3,56.8-0.4
	c12.3-0.1,24.6-0.2,36.9-0.3h5c0.1-1.7,0.3-3.1,0.3-4.5c0.4-44.3,0.7-88.7,1.1-133c0.1-8.4,0.3-16.7,0.5-25.1c0-1.2,0.3-2.4,0.5-4.1
	c9,13.7,19.3,25.5,28.8,38s19.1,24.7,28.6,37.1c22.4,29.1,44.8,58.3,67.1,87.5c1.6,2.5,4.4,3.9,7.4,3.8
	c101.9-0.3,203.8-0.6,305.7-0.8c6.5,0,12.9-0.1,19.4-0.1c3.4,0,4.7,0.8,4.7,2.6s-1.4,2.7-4.7,2.7c-9.6,0-19.2-0.3-28.9-0.2
	c-97.2,0.1-194.3,0.2-291.5,0.4c-1.5,0-3,0.1-5.4,0.2l27.7,36.1c12.4-16.7,28.4-21,47.2-13.5C422.2,267.4,428,275.9,430.3,287.4z
	 M328,235.7c-0.3-0.7-0.7-1.4-1.1-2.1c-30.8-40.3-61.7-80.6-92.6-120.9c-0.1-0.1-0.3-0.1-0.4-0.1c-0.2,0-0.3,0.1-0.8,0.5v122.6H328z
	 M394.6,322.8c-3.8-6.7-18.8-25.8-21.5-27.3C371.8,311.2,380.4,322.4,394.6,322.8L394.6,322.8z"/>
<path d="M521,333.2v-71c3.5-0.9,43.7-1.2,50.2-0.3v10.7c-4.1,0.5-8.3,0.2-12.5,0.2s-8.2,0-12.3,0h-13.1v18.1
	c11.9,0.9,24-0.2,36.1,0.6v11.1h-36.2v19.3h37.9v10.7C568.1,333.7,532.8,334.1,521,333.2z"/>
<path d="M508.6,287.5h-12.8c-0.3-0.5-0.5-0.9-0.8-1.5c-4.5-13.7-18.5-16.2-28.5-13.3c-4.4,1.2-8.3,4-10.9,7.9
	c-6.4,9.2-6.4,24.4,0.1,33.6c5.2,7.4,12.7,9.6,21.2,8.7c8.1-0.8,14.2-4.8,17.5-12.5c0.2-0.6,0.5-1.2,0.7-1.8s0.4-0.8,0.7-1.4h12.4
	c0,0.9-0.1,1.9-0.2,2.8c-4.1,15.6-17.8,25.4-34.8,24.8c-20-0.7-34-14.4-34.9-34.4c-0.3-5,0.2-10.1,1.4-15
	c5.2-18.9,21.4-26.9,37.7-25.5c14,1.2,24.4,7.9,29.6,21.5C507.5,283.2,507.9,285.1,508.6,287.5z"/>
<path d="M686.5,322v11.2h-45.2v-71.2c3.8-1.1,7.6-0.4,12-0.4V322L686.5,322z"/>
<path d="M631.1,333.2h-44.5c-0.9-3.4-1.2-63.9-0.3-71.5H598c0.3,19.9,0,39.8,0.2,60.2h32.9L631.1,333.2z"/>
</svg>
