<?xml version="1.0" encoding="utf-8"?>
<!-- Generator: Adobe Illustrator 25.0.1, SVG Export Plug-In . SVG Version: 6.00 Build 0)  -->
<svg version="1.1" id="Layer_1" xmlns="http://www.w3.org/2000/svg" xmlns:xlink="http://www.w3.org/1999/xlink" x="0px" y="0px"
	 width="1330.8px" height="318.6px" viewBox="0 0 1330.8 318.6" style="enable-background:new 0 0 1330.8 318.6;"
	 xml:space="preserve">
<style type="text/css">
	.st0{fill:#A10000;}
</style>
<g id="artboard">
</g>
<g id="content">
	<g>
		<path d="M229.6,313.8v-11.2c32.8-3.2,34-5.6,33.6-48.4L263.6,91C230.8,164.2,178,278.6,164,313.8h-10.4
			C140,277.4,94.8,167.4,64.4,95c-6.8,140-7.2,171.6-7.2,179.2c0.4,22.4,10.4,25.6,37.6,28.4v11.2H0v-11.2
			c23.2-2.4,32.8-7.2,36-28.8c2.4-17.6,2.8-32,13.2-178C50.8,75,46.8,68.2,11.6,65V53.8h69.6l88.4,202.8l94.8-202.8h70V65
			c-34.4,4-38.8,7.6-38,35.6l1.6,153.6c1.6,42.8,2.8,44.8,38,48.4v11.2L229.6,313.8L229.6,313.8z"/>
		<path d="M354.4,313.8v-11.2c25.2-2.4,28-4.4,28-31.6v-82.4c0-24.8-1.2-26.4-25.2-30.4v-9.6c20.8-3.6,39.6-8.8,56.8-16
			c0,16.8,0,33.6,0,50.4v88c0,27.2,2.8,29.2,28.8,31.6v11.2H354.4z M396,93.4c-11.2,0-21.2-10-21.2-21.2c0-12.8,10-22,21.6-22
			c11.2,0,20.4,9.2,20.4,22C416.8,83.4,407.6,93.4,396,93.4z"/>
		<path d="M740.4,65c-25.6,2.8-34,6.8-35.2,25.2c-0.4,12.8-1.2,29.6-1.2,66.8v160.4h-15.2L517.6,108.2v100c0,36,1.2,54,2,65.6
			c0.8,20.4,10.8,26.4,39.6,28.8v11.2H462v-11.2c24.8-2,34.4-8,36-27.6c1.2-12.8,2-30.8,2-67.2v-102c0-11.2-0.8-17.6-8-26.4
			c-7.6-10-16-12.4-35.6-14.4V53.8h60L686,255v-98c0-37.2-0.8-54.4-2-66.4c-1.2-18-10.4-23.6-42.4-25.6V53.8h98.8L740.4,65L740.4,65
			z"/>
		<path d="M900.4,279.8c-25.6,32-53.6,38.8-66.4,38.8c-48.8,0-78.4-40-78.4-86c0-27.2,9.6-52.4,26-70c16.8-18.8,38.8-29.2,59.6-29.2
			c34.8,0,61.2,30,61.2,62c-0.4,8-1.6,11.6-8,13.2c-8,1.6-59.2,5.2-106.8,6.8c-1.2,53.6,31.6,75.6,60,75.6
			c16.4,0,31.6-6.8,46.4-20.4L900.4,279.8z M831.6,148.6c-18.4,0-36.4,17.2-42,49.6c22.4,0,44.8,0,68.4-1.2c7.2,0,9.6-2,9.6-8
			C868,167.8,854,148.6,831.6,148.6z"/>
		<path d="M1198.4,149c-20.4,3.2-24,7.6-32.4,30c-11.6,30.8-30.8,86.4-48,139.2h-12.4c-16-42.8-32.4-84.4-48-125.6
			c-14.8,36.8-32.8,81.2-48.8,125.6h-12c-14.4-47.6-29.6-94.8-46-142.8c-7.2-21.6-10.8-24-30.4-26.4v-10.8h83.2V149
			c-24,4-25.6,6-20,24.4c9.2,30.8,20,63.6,29.6,93.6c16-40.8,32-82.4,47.6-126.8h10.8c14.8,41.6,31.2,84.8,48,128
			c8.8-24.4,21.6-63.6,29.2-92.8c5.2-20.8,2-22.8-25.2-26.4v-10.8h74.8L1198.4,149L1198.4,149z"/>
		<path d="M1312,185.8c-7.2-23.2-17.6-39.2-42-39.2c-14,0-24.8,10-24.8,26c0,17.2,11.6,25.2,34,35.6c34.4,16.4,51.6,28.4,51.6,54.8
			c0,36.8-33.6,55.6-65.2,55.6c-20.8,0-39.2-6.4-47.6-11.2c-2-11.6-5.6-33.6-7.2-46.8l11.6-2c7.2,25.6,21.2,46.4,49.2,46.4
			c15.2,0,28-10.4,28-27.2c0-18-10.8-27.2-32-37.6c-28-13.6-50.8-26.4-50.8-55.2c0-29.2,24.8-51.6,62.4-51.6c16.8,0,30.4,4,38.4,5.2
			c1.2,9.6,4,34.8,6,44.4L1312,185.8z"/>
	</g>
</g>
<g id="shape">
	<rect x="2.4" class="st0" width="440" height="33"/>
</g>
</svg>
