<?xml version="1.0" encoding="utf-8"?>
<!-- Generator: Adobe Illustrator 25.0.1, SVG Export Plug-In . SVG Version: 6.00 Build 0)  -->
<svg version="1.1" id="artboard" xmlns="http://www.w3.org/2000/svg" xmlns:xlink="http://www.w3.org/1999/xlink" x="0px" y="0px"
	 viewBox="0 0 1920 443" style="enable-background:new 0 0 1920 443;" xml:space="preserve">
<style type="text/css">
	.st0{fill:#8B16B7;}
</style>
<g>
	<path class="st0" d="M188.46,350.37l87.3-223.54c3.52-9.18,8.94-13.77,16.26-13.77c3.12,0,5.76,0.95,7.91,2.86
		c2.15,1.9,3.22,4.23,3.22,6.96c0,1.86-0.83,4.83-2.49,8.94l-87.3,223.68c-3.52,9.08-8.89,13.62-16.11,13.62
		c-3.13,0-5.79-0.93-7.98-2.78c-2.2-1.86-3.3-4.15-3.3-6.88c0-1.86,0.49-4.01,1.46-6.45L188.46,350.37z"/>
	<path d="M555.55,288.12h23.73c13.57,0,20.36,4.64,20.36,13.92c0,6.64-2.37,11.82-7.1,15.53c-4.74,3.71-11.4,5.57-20,5.57h-27.83
		c-10.16,0-17.99-2.12-23.51-6.37c-5.52-4.25-8.28-10.33-8.28-18.24c0-5.08,2.05-12.5,6.15-22.27l37.65-88.18l-28.27,30.32
		c-6.74,7.32-13.14,10.99-19.19,10.99c-7.91,0-13.04-5.42-15.38-16.26l-4.1-18.16l-35.74,88.18c-12.3,30.27-21.68,50.85-28.12,61.74
		c-6.45,10.89-14.79,20.34-25.05,28.35c-14.85,11.52-31.89,17.29-51.12,17.29c-20.51,0-37.16-6.47-49.95-19.41
		c-12.79-12.94-19.19-29.81-19.19-50.61c0-27.25,10.06-51.22,30.18-71.92c10.84-11.04,24.36-19.95,40.58-26.73
		c16.21-6.79,32.18-10.18,47.9-10.18c8.01,0,14.4,1.71,19.19,5.13c4.78,3.42,7.18,7.96,7.18,13.62c0,5.96-2.54,10.79-7.62,14.5
		c-2.93,2.15-8.59,3.61-16.99,4.39c-19.43,1.76-35.11,6.2-47.02,13.33c-9.86,5.96-17.7,13.72-23.51,23.29
		c-5.81,9.57-8.72,19.58-8.72,30.03c0,11.13,2.83,19.9,8.5,26.29c5.66,6.4,13.43,9.6,23.29,9.6c11.81,0,22.09-5.05,30.83-15.16
		c8.74-10.11,18.33-27.95,28.78-53.54l58.15-143.12c5.08-12.6,11.91-18.9,20.51-18.9c5.47,0,9.79,1.76,12.96,5.27
		c3.17,3.52,5.93,9.67,8.28,18.46l8.94,33.69l43.95-43.21c9.67-9.47,18.7-14.21,27.1-14.21c5.86,0,10.81,1.78,14.87,5.35
		c4.05,3.57,6.08,7.89,6.08,12.96c0,3.22-0.78,6.74-2.34,10.55l-3.37,8.2L555.55,288.12z"/>
	<path d="M719.02,291.19h16.99c6.74,0,11.52,1,14.36,3c2.83,2,4.25,5.3,4.25,9.89c0,5.96-2.17,10.62-6.52,13.99
		c-4.35,3.37-10.43,5.05-18.24,5.05h-26.22c-8.2,0-13.67-3.17-16.41-9.52c-5.37,6.35-12.11,9.52-20.21,9.52h-21.39
		c-8.59,0-15.72-2.69-21.39-8.06c-5.67-5.37-8.5-12.16-8.5-20.36c0-4.69,1.27-10.16,3.81-16.41l19.92-48.93
		c5.57-13.57,13.18-20.36,22.85-20.36c4.2,0,7.76,1.34,10.69,4.03c2.93,2.69,4.39,5.98,4.39,9.89c0,2.93-0.78,6.3-2.34,10.11
		l-1.61,3.96l-15.38,37.65l-1.61,4.39c-0.88,2.54-1.37,4.44-1.46,5.71c-0.2,4.39,2.64,6.59,8.5,6.59c12.11,0,20.16-4.88,24.17-14.65
		l18.31-45.12c5.47-13.67,13.18-20.51,23.14-20.51c4.1,0,7.62,1.37,10.55,4.1c2.93,2.73,4.39,6.01,4.39,9.81
		c0,3.03-1.27,7.71-3.81,14.06L719.02,291.19z"/>
	<path d="M868.58,291.19h17.58c12.4,0,18.6,4.35,18.6,13.04c0,5.96-2.2,10.6-6.59,13.92c-4.39,3.32-10.45,4.98-18.16,4.98h-30.62
		c-5.96,0-10.96-1.81-15.01-5.42c-4.05-3.61-6.08-8.15-6.08-13.62c0-3.32,1.37-8.3,4.1-14.94l12.89-31.93
		c1.37-3.32,2.1-6.01,2.2-8.06c0.1-2.34-0.86-4.34-2.86-6.01c-2-1.66-4.57-2.49-7.69-2.49c-10.06,0-18.16,7.57-24.32,22.71
		l-17.29,42.48c-5.18,12.89-12.89,19.34-23.14,19.34c-4.2,0-7.76-1.27-10.69-3.81c-2.93-2.54-4.39-5.66-4.39-9.38
		c0-2.73,0.78-6.01,2.34-9.81l1.61-3.96l29.59-72.95c3.81-9.47,10.3-14.21,19.48-14.21c7.52,0,12.89,3.32,16.11,9.96
		c10.45-8.01,20.41-12.01,29.88-12.01c9.18,0,16.75,2.64,22.71,7.91c5.96,5.27,8.94,11.96,8.94,20.07c0,4.49-1.08,9.42-3.22,14.79
		L868.58,291.19z"/>
	<path d="M994.12,323.12h-42.48c-12.21,0-22.14-4.3-29.81-12.89c-7.67-8.59-11.5-19.73-11.5-33.4c0-18.26,6.3-34.13,18.9-47.61
		c12.6-13.48,27.39-20.22,44.38-20.22c11.52,0,20.9,3.22,28.12,9.67c7.23,6.45,10.84,14.84,10.84,25.2c0,7.23-1.81,13.16-5.42,17.8
		c-3.61,4.64-8.25,6.96-13.92,6.96c-8.99,0-13.48-4.2-13.48-12.6c0-1.27,0-2.34,0-3.22c0.1-1.07,0.15-2.1,0.15-3.08
		c0-6.83-3.37-10.25-10.11-10.25c-6.35,0-12.14,3.37-17.36,10.11c-5.23,6.74-7.84,14.26-7.84,22.56c0,6.93,2.12,11.84,6.37,14.72
		c4.25,2.88,11.45,4.32,21.61,4.32h27.69c12.4,0,18.6,4.35,18.6,13.04c0,5.86-2.22,10.47-6.67,13.84
		C1007.77,321.44,1001.74,323.12,994.12,323.12z"/>
	<path d="M1094.76,217.36c10.25-5.57,18.7-8.35,25.34-8.35c9.38,0,17.07,2.61,23.07,7.84c6.01,5.23,9.01,11.89,9.01,20
		c0,4.88-1.17,10.21-3.52,15.97l-15.38,38.38h16.85c12.3,0,18.46,4.35,18.46,13.04c0,5.96-2.17,10.6-6.52,13.92
		c-4.35,3.32-10.43,4.98-18.24,4.98h-29.44c-6.25,0-11.5-1.78-15.75-5.35c-4.25-3.56-6.37-7.93-6.37-13.11
		c0-3.52,1.12-8.01,3.37-13.48l13.48-33.11c1.66-4.2,2.49-7.37,2.49-9.52c0-5.57-3.71-8.35-11.13-8.35c-9.96,0-18.36,8.5-25.2,25.49
		l-16.41,40.28c-5.18,12.79-12.84,19.19-23,19.19c-4.01,0-7.42-1.27-10.25-3.81c-2.83-2.54-4.25-5.62-4.25-9.23
		c0-2.73,0.73-5.96,2.2-9.67l1.61-3.96l63.72-157.18c5.57-13.48,13.18-20.21,22.85-20.21c4,0,7.45,1.34,10.33,4.03
		c2.88,2.69,4.32,5.93,4.32,9.74c0,3.13-1.27,7.76-3.81,13.92L1094.76,217.36z"/>
	<path d="M1214.87,291.19h16.55c12.3,0,18.46,4.35,18.46,13.04c0,5.96-2.17,10.6-6.52,13.92c-4.35,3.32-10.43,4.98-18.24,4.98
		h-23.29c-8.59,0-15.36-1.76-20.29-5.27c-4.93-3.52-7.4-8.3-7.4-14.36c0-3.22,1.03-7.32,3.08-12.3l24.17-59.47l1.61-4.1
		c4.49-11.03,11.72-16.55,21.68-16.55c4.1,0,7.64,1.37,10.62,4.1c2.98,2.73,4.47,6.01,4.47,9.81c0,3.13-1.32,7.91-3.96,14.36
		L1214.87,291.19z M1234.21,164.34c5.66,0,10.47,1.98,14.43,5.93s5.93,8.77,5.93,14.43c0,5.67-1.98,10.47-5.93,14.43
		s-8.77,5.93-14.43,5.93c-5.67,0-10.47-1.98-14.43-5.93s-5.93-8.76-5.93-14.43c0-5.66,1.98-10.47,5.93-14.43
		S1228.54,164.34,1234.21,164.34z"/>
	<path d="M1290.61,280.21c0,7.32,5.52,10.99,16.55,10.99h43.51c12.3,0,18.46,4.35,18.46,13.04c0,5.96-2.17,10.6-6.52,13.92
		c-4.35,3.32-10.43,4.98-18.24,4.98h-41.46c-15.43,0-27.17-3.81-35.23-11.43s-12.08-18.75-12.08-33.4
		c0-18.85,6.37-35.11,19.12-48.78c12.74-13.67,27.91-20.51,45.48-20.51c12.79,0,23.07,3.35,30.83,10.03
		c7.76,6.69,11.65,15.5,11.65,26.44c0,13.18-5.37,22.95-16.11,29.3c-5.96,3.61-14.85,5.42-26.66,5.42H1290.61z M1297.64,253.54
		h16.11c10.45,0,15.53-2.29,15.23-6.88c-0.29-5.18-3.66-7.76-10.11-7.76C1309.89,238.9,1302.81,243.78,1297.64,253.54z"/>
	<path d="M1423.47,251.05l-2.78,6.74c-4.3,9.67-10.4,14.5-18.31,14.5c-4.01,0-7.59-1.39-10.77-4.18c-3.17-2.78-4.76-5.98-4.76-9.59
		c0-3.42,1.41-7.96,4.25-13.62l19.48-39.55c4.78-9.47,10.74-14.21,17.87-14.21c3.81,0,7.08,1.25,9.81,3.74
		c2.73,2.49,4.1,5.45,4.1,8.86c0,0.88-0.29,2.78-0.88,5.71c-0.39,2.15-0.59,4.05-0.59,5.71c0,6.15,2.29,12.45,6.88,18.9l8.35,11.57
		c8.5,11.82,12.74,23.24,12.74,34.28c0,12.3-4.59,22.58-13.77,30.83c-9.18,8.25-20.61,12.38-34.28,12.38h-30.62
		c-12.4,0-18.6-4.3-18.6-12.89c0-5.96,2.2-10.62,6.59-13.99s10.45-5.05,18.16-5.05h16.99c13.57,0,20.36-4.93,20.36-14.79
		c0-3.61-1.27-7.86-3.81-12.74L1423.47,251.05z"/>
	<path class="st0" d="M1484.11,350.37l87.3-223.54c3.52-9.18,8.94-13.77,16.26-13.77c3.12,0,5.76,0.95,7.91,2.86
		c2.15,1.9,3.22,4.23,3.22,6.96c0,1.86-0.83,4.83-2.49,8.94l-87.3,223.68c-3.52,9.08-8.89,13.62-16.11,13.62
		c-3.13,0-5.79-0.93-7.98-2.78c-2.2-1.86-3.3-4.15-3.3-6.88c0-1.86,0.49-4.01,1.46-6.45L1484.11,350.37z"/>
</g>
</svg>
